<svg version="1.2" xmlns="http://www.w3.org/2000/svg" viewBox="0 0 224 328" width="224" height="328">
	<path id="Path 0" fill="currentColor" d="m32.23 55.64l0.27 18.64 76 38.49c-37.97 19.41-55.19 28.13-62.76 31.89l-13.75 6.84c0.01 29.06 0.23 37.5 0.51 37.5 0.28 0 34.48-16.99 76-37.75 41.53-20.76 75.5-37.97 75.5-38.25 0-0.28-33.97-17.49-75.5-38.25-41.52-20.76-75.73-37.75-76.02-37.75-0.29 0-0.4 8.39-0.25 18.64zm76.27 121.54l-76 38.07c117.02 58.62 151.34 75.66 151.75 75.7 0.41 0.03 0.74-8.39 0.73-18.7l-0.02-18.75c-58.13-29.45-75-38.23-74.99-38.5 0.02-0.27 16.9-8.94 37.53-19.25l37.5-18.75c0-29.45-0.11-37.98-0.25-37.95-0.14 0.04-34.45 17.19-76.25 38.13z"/>
</svg>